<svg width="20" height="23" viewBox="0 0 20 23" fill="none" xmlns="http://www.w3.org/2000/svg">
<path fill-rule="evenodd" clip-rule="evenodd" d="M10 13.3355C13.7279 13.3355 16.75 10.3502 16.75 6.66775C16.75 2.98525 13.7279 0 10 0C6.27208 0 3.25 2.98525 3.25 6.66775C3.25 10.3502 6.27208 13.3355 10 13.3355ZM9.97656 11.788C12.8631 11.788 15.2031 9.52618 15.2031 6.73603C15.2031 3.94588 12.8631 1.68401 9.97656 1.68401C7.09001 1.68401 4.75 3.94588 4.75 6.73603C4.75 9.52618 7.09001 11.788 9.97656 11.788Z" fill="#F37032"/>
<path fill-rule="evenodd" clip-rule="evenodd" d="M18 23H20C20 17.4772 15.5228 13 10 13C4.47715 13 0 17.4772 0 23H2C2 18.5817 5.58172 15 10 15C14.4183 15 18 18.5817 18 23Z" fill="#F37032"/>
</svg>
