<svg width="33" height="32" viewBox="0 0 33 32" fill="none" xmlns="http://www.w3.org/2000/svg">
<path fill-rule="evenodd" clip-rule="evenodd" d="M3.49622 14.4525C3.49622 21.2036 8.96887 26.6763 15.7197 26.6763C22.4704 26.6763 27.943 21.2036 27.943 14.4525C27.943 7.70168 22.4704 2.22888 15.7197 2.22888C8.96887 2.22888 3.49622 7.70168 3.49622 14.4525Z" fill="url(#paint0_radial_3_194)"/>
<path d="M16.6447 0C7.80802 0 0.644653 7.16345 0.644653 16.0001C0.644653 24.8366 7.80802 32 16.6447 32C25.4812 32 32.6447 24.8366 32.6447 16.0001C32.6447 7.16345 25.4812 0 16.6447 0ZM4.66731 14.4187C4.66731 8.35556 9.473 3.41785 15.4828 3.19997C13.2301 7.24056 7.63552 12.2418 7.52118 17.0071C7.44492 20.1844 8.60964 22.679 10.4836 24.2578C7.01669 22.3464 4.66729 18.6575 4.66729 14.4187H4.66731ZM21.3182 24.2524C23.0854 22.7487 24.2333 20.4097 24.3052 17.4098C24.3844 14.1071 21.8424 10.4513 19.5902 7.11567C19.4518 6.89561 19.3528 6.76284 19.3528 6.76284C19.3528 6.76284 17.6963 9.69242 15.9072 12.225C14.1176 14.7579 13.369 19.0089 16.5259 20.7547C16.5259 20.7547 14.8228 18.9934 16.9951 15.897C17.6112 15.0192 18.5669 13.7721 19.3239 12.5722C20.3607 14.3181 21.1386 16.0059 21.107 17.3331C21.0232 20.8308 18.9302 23.0422 15.7751 22.9665C12.62 22.8908 10.6355 20.5816 10.7194 17.084C10.7603 15.3813 12.159 13.1496 13.7285 10.9721C13.8492 10.7929 14.0334 10.5403 14.2909 10.2024L14.2911 10.2021C14.352 10.1196 14.413 10.0374 14.474 9.95552C16.5048 7.14964 16.5338 4.60516 16.3195 3.20013C22.3247 3.42318 27.1253 8.35894 27.1253 14.4186C27.1253 18.6535 24.78 22.3395 21.3183 24.2524L21.3182 24.2524Z" fill="black"/>
<defs>
<radialGradient id="paint0_radial_3_194" cx="0" cy="0" r="1" gradientUnits="userSpaceOnUse" gradientTransform="translate(15.7197 14.4526) scale(23.8391 23.8392)">
<stop stop-color="#F37032"/>
<stop offset="0.0392157" stop-color="#F37032"/>
<stop offset="0.831373" stop-color="#F04C2F"/>
<stop offset="1" stop-color="#F04C2F"/>
</radialGradient>
</defs>
</svg>
