<svg width="26" height="26" viewBox="0 0 26 26" fill="none" xmlns="http://www.w3.org/2000/svg">
<path fill-rule="evenodd" clip-rule="evenodd" d="M17.5343 9.88425C19.0734 9.88425 20.3211 8.65178 20.3211 7.13146C20.3211 5.61113 19.0734 4.37866 17.5343 4.37866C15.9952 4.37866 14.7476 5.61113 14.7476 7.13146C14.7476 8.65178 15.9952 9.88425 17.5343 9.88425ZM17.3981 8.02015C17.8967 8.02015 18.301 7.6159 18.301 7.11724C18.301 6.61857 17.8967 6.21433 17.3981 6.21433C16.8994 6.21433 16.4951 6.61857 16.4951 7.11724C16.4951 7.6159 16.8994 8.02015 17.3981 8.02015Z" fill="#F37032"/>
<path fill-rule="evenodd" clip-rule="evenodd" d="M1.26774 20.0474L9.87909 11.2457C9.46312 10.3349 9.33552 8.57231 9.80889 6.74978C10.1433 5.46237 10.6607 4.18082 12.1021 2.99125C16.2394 -0.423186 19.9327 1.47146 20.9912 2.01448L20.9913 2.01453C21.0463 2.04275 21.0942 2.06732 21.1347 2.0873C21.8367 2.06351 27.2656 6.91629 23.9193 12.6017C21.2423 17.15 16.7198 16.939 14.7932 16.265L12.7807 18.2157H11.2831V19.6192C11.2831 20.114 10.7839 20.2218 10.5343 20.2139L9.45789 20.0474C9.44229 20.4993 9.38769 21.4794 9.29408 21.7839C9.20048 22.0884 8.94308 22.2279 8.82608 22.2597L7.23485 22.45C7.23485 22.6958 7.25825 23.2492 7.35185 23.4966C7.44545 23.744 7.31285 23.9328 7.23485 23.9962L5.85422 25.2808C4.5516 25.2887 1.86211 25.2998 1.52515 25.2808C1.18818 25.2617 1.04154 24.8446 1.01034 24.6385C1.00254 23.4966 0.991616 21.1083 1.01034 20.6896C1.02906 20.271 1.18974 20.087 1.26774 20.0474ZM14.7983 15.7745C16.4641 16.3417 20.5655 15.9913 22.8503 12.1096C25.7188 7.2363 21.065 3.07666 20.4632 3.09705C20.4285 3.07992 20.3875 3.05884 20.3403 3.03464C19.4329 2.56918 16.2669 0.945154 12.7203 3.87189C11.4846 4.89155 11.0411 5.99005 10.7544 7.09357C10.3486 8.65579 10.2551 10.4717 10.6116 11.2524L11.1232 11.807L10.5534 11.1942L2.0394 20.1359C1.97153 20.1705 1.6078 20.5868 1.59151 20.9515C1.57523 21.3161 1.58473 22.971 1.59151 23.9654C1.61866 24.145 1.74624 24.5083 2.0394 24.5248C2.33255 24.5414 4.6724 24.5317 5.80567 24.5248L6.85436 23.7476C6.92223 23.6923 7.00681 23.4537 7.00681 23.2233V22.0594L8.39117 21.8936C8.41048 21.8884 8.43656 21.8849 8.46669 21.8808C8.59538 21.8635 8.79809 21.8363 8.86407 21.6214C8.94448 21.3595 8.99485 19.8973 9.00917 19.4815L9.0097 19.466L10.233 19.7573C10.2652 19.7583 10.3065 19.7621 10.3533 19.7664C10.6225 19.7912 11.0777 19.8331 11.0777 19.466C11.0777 19.2165 11.0289 18.8246 10.9877 18.4947C10.9579 18.2547 10.932 18.0474 10.932 17.9515H12.6214L14.7983 15.7745Z" fill="#F37032"/>
<path d="M9.87909 11.2457L10.2365 11.5954L10.4765 11.3501L10.3339 11.038L9.87909 11.2457ZM1.26774 20.0474L1.49429 20.4931L1.56762 20.4558L1.62514 20.397L1.26774 20.0474ZM9.80889 6.74978L9.32495 6.62408V6.62408L9.80889 6.74978ZM12.1021 2.99125L12.4204 3.37688L12.4204 3.37688L12.1021 2.99125ZM20.9912 2.01448L20.763 2.45938L20.7676 2.46169L20.9912 2.01448ZM20.9913 2.01453L21.2196 1.56963L21.2149 1.56732L20.9913 2.01453ZM21.1347 2.0873L20.9133 2.53562L21.026 2.59127L21.1516 2.58701L21.1347 2.0873ZM23.9193 12.6017L24.3502 12.8553L23.9193 12.6017ZM14.7932 16.265L14.9583 15.7931L14.6669 15.6911L14.4452 15.906L14.7932 16.265ZM12.7807 18.2157V18.7157H12.9833L13.1287 18.5747L12.7807 18.2157ZM11.2831 18.2157V17.7157H10.7831V18.2157H11.2831ZM10.5343 20.2139L10.4579 20.708L10.488 20.7127L10.5184 20.7136L10.5343 20.2139ZM9.45789 20.0474L9.53433 19.5532L8.97762 19.4671L8.95819 20.0301L9.45789 20.0474ZM9.29408 21.7839L8.81616 21.637H8.81616L9.29408 21.7839ZM8.82608 22.2597L8.88545 22.7561L8.92168 22.7518L8.9569 22.7422L8.82608 22.2597ZM7.23485 22.45L7.17547 21.9535L6.73485 22.0062V22.45H7.23485ZM7.23485 23.9962L6.91937 23.6083L6.90645 23.6188L6.89426 23.6301L7.23485 23.9962ZM5.85422 25.2808L5.85727 25.7807L6.05214 25.7796L6.19481 25.6468L5.85422 25.2808ZM1.52515 25.2808L1.49695 25.78H1.49695L1.52515 25.2808ZM1.01034 24.6385L0.510348 24.6419L0.510593 24.6778L0.515966 24.7133L1.01034 24.6385ZM1.01034 20.6896L1.50984 20.712L1.01034 20.6896ZM14.7983 15.7745L14.9595 15.3012L14.6649 15.2008L14.4448 15.4209L14.7983 15.7745ZM22.8503 12.1096L23.2812 12.3632L22.8503 12.1096ZM20.4632 3.09705L20.2419 3.54538L20.3546 3.60102L20.4802 3.59677L20.4632 3.09705ZM20.3403 3.03464L20.1121 3.47952V3.47952L20.3403 3.03464ZM12.7203 3.87189L12.402 3.48624L12.7203 3.87189ZM10.7544 7.09357L11.2384 7.21928L10.7544 7.09357ZM10.6116 11.2524L10.1568 11.4602L10.19 11.5328L10.2442 11.5915L10.6116 11.2524ZM11.1232 11.807L10.7571 12.1475L11.4907 11.4679L11.1232 11.807ZM10.5534 11.1942L10.9195 10.8537L10.5577 10.4646L10.1913 10.8494L10.5534 11.1942ZM2.0394 20.1359L2.26615 20.5816L2.34246 20.5427L2.4015 20.4807L2.0394 20.1359ZM1.59151 20.9515L1.09201 20.9292L1.59151 20.9515ZM1.59151 23.9654L1.09152 23.9689L1.09177 24.0047L1.09713 24.0402L1.59151 23.9654ZM2.0394 24.5248L2.06762 24.0256L2.0394 24.5248ZM5.80567 24.5248L5.80872 25.0248L5.97212 25.0238L6.10339 24.9265L5.80567 24.5248ZM6.85436 23.7476L7.15209 24.1493L7.16123 24.1425L7.17005 24.1353L6.85436 23.7476ZM7.00681 22.0594L6.94737 21.5629L6.50681 21.6156V22.0594H7.00681ZM8.39117 21.8936L8.45061 22.3901L8.48688 22.3857L8.52213 22.3761L8.39117 21.8936ZM8.46669 21.8808L8.40008 21.3853H8.40007L8.46669 21.8808ZM8.86407 21.6214L9.34205 21.7681L8.86407 21.6214ZM9.00917 19.4815L8.50947 19.4643V19.4643L9.00917 19.4815ZM9.0097 19.466L9.12552 18.9796L8.53105 18.8381L8.51 19.4488L9.0097 19.466ZM10.233 19.7573L10.1172 20.2437L10.1665 20.2554L10.2171 20.257L10.233 19.7573ZM10.3533 19.7664L10.3075 20.2643H10.3075L10.3533 19.7664ZM10.9877 18.4947L10.4916 18.5565L10.9877 18.4947ZM10.932 17.9515V17.4515H10.432V17.9515H10.932ZM12.6214 17.9515V18.4515H12.8285L12.9749 18.305L12.6214 17.9515ZM9.5217 10.8961L0.910346 19.6977L1.62514 20.397L10.2365 11.5954L9.5217 10.8961ZM9.32495 6.62408C8.83334 8.5168 8.94554 10.4052 9.42428 11.4535L10.3339 11.038C9.9807 10.2647 9.83769 8.62782 10.2928 6.87547L9.32495 6.62408ZM11.7839 2.60561C10.2324 3.88605 9.67453 5.27819 9.32495 6.62408L10.2928 6.87547C10.612 5.64655 11.0891 4.4756 12.4204 3.37688L11.7839 2.60561ZM21.2195 1.5696C20.6808 1.29325 19.4169 0.642651 17.7376 0.520145C16.0414 0.396404 13.9555 0.813405 11.7839 2.60561L12.4204 3.37688C14.3861 1.75466 16.2155 1.41177 17.6649 1.51749C19.1311 1.62446 20.2432 2.19269 20.763 2.45936L21.2195 1.5696ZM21.2149 1.56732L21.2148 1.56726L20.7676 2.46169L20.7677 2.46174L21.2149 1.56732ZM21.3561 1.63897C21.3198 1.62106 21.2757 1.59845 21.2196 1.56966L20.7631 2.4594C20.817 2.48705 20.8687 2.51358 20.9133 2.53562L21.3561 1.63897ZM24.3502 12.8553C26.1338 9.82506 25.5722 6.99994 24.4861 4.96786C23.9457 3.9569 23.2731 3.13433 22.6852 2.56228C22.3916 2.27655 22.1123 2.04665 21.8734 1.88499C21.7546 1.80459 21.6374 1.73533 21.5272 1.68469C21.4338 1.64175 21.283 1.58199 21.1178 1.58758L21.1516 2.58701C21.0742 2.58964 21.048 2.565 21.1096 2.59331C21.1544 2.61392 21.2226 2.65203 21.3129 2.71314C21.4922 2.83452 21.7261 3.02426 21.9878 3.27897C22.5107 3.7878 23.1178 4.5293 23.6042 5.43924C24.5714 7.24894 25.0512 9.6929 23.4884 12.348L24.3502 12.8553ZM14.6281 16.737C16.6907 17.4586 21.5098 17.6812 24.3502 12.8553L23.4884 12.348C20.9748 16.6187 16.7489 16.4195 14.9583 15.7931L14.6281 16.737ZM13.1287 18.5747L15.1412 16.6241L14.4452 15.906L12.4327 17.8566L13.1287 18.5747ZM11.2831 18.7157H12.7807V17.7157H11.2831V18.7157ZM11.7831 19.6192V18.2157H10.7831V19.6192H11.7831ZM10.5184 20.7136C10.7056 20.7196 10.9901 20.6857 11.2476 20.5408C11.5343 20.3793 11.7831 20.0757 11.7831 19.6192H10.7831C10.7831 19.6545 10.7756 19.6595 10.7795 19.6533C10.7815 19.6502 10.7786 19.6572 10.757 19.6693C10.7342 19.6822 10.6999 19.6951 10.6566 19.704C10.6134 19.7128 10.5743 19.7149 10.5502 19.7141L10.5184 20.7136ZM9.38145 20.5415L10.4579 20.708L10.6107 19.7198L9.53433 19.5532L9.38145 20.5415ZM9.77201 21.9308C9.83801 21.7161 9.87746 21.3365 9.90363 21.011C9.93167 20.6622 9.94959 20.2964 9.95759 20.0646L8.95819 20.0301C8.95058 20.2503 8.9334 20.6005 8.90684 20.9309C8.87841 21.2845 8.84376 21.5472 8.81616 21.637L9.77201 21.9308ZM8.9569 22.7422C9.18886 22.6794 9.61428 22.4439 9.77201 21.9308L8.81616 21.637C8.80206 21.6828 8.77633 21.7165 8.74542 21.7428C8.72952 21.7563 8.71374 21.7664 8.70112 21.773C8.68703 21.7805 8.68362 21.7802 8.69526 21.7771L8.9569 22.7422ZM7.29422 22.9464L8.88545 22.7561L8.7667 21.7632L7.17547 21.9535L7.29422 22.9464ZM7.8195 23.3197C7.7996 23.2671 7.77389 23.1291 7.75633 22.929C7.74024 22.7456 7.73485 22.5606 7.73485 22.45H6.73485C6.73485 22.5852 6.74115 22.7998 6.76016 23.0164C6.77771 23.2164 6.8105 23.4788 6.8842 23.6736L7.8195 23.3197ZM7.55033 24.3841C7.73824 24.2313 8.01248 23.8298 7.8195 23.3197L6.8842 23.6736C6.88584 23.6779 6.88397 23.6746 6.88405 23.6656C6.88412 23.6573 6.88579 23.6501 6.88766 23.6449C6.88928 23.6405 6.89114 23.6372 6.89339 23.6341C6.89464 23.6323 6.89674 23.6296 6.90018 23.6259C6.9034 23.6225 6.90952 23.6163 6.91937 23.6083L7.55033 24.3841ZM6.19481 25.6468L7.57544 24.3623L6.89426 23.6301L5.51363 24.9147L6.19481 25.6468ZM1.49695 25.78C1.85451 25.8002 4.56969 25.7886 5.85727 25.7807L5.85118 24.7808C4.53351 24.7888 1.86971 24.7994 1.55334 24.7816L1.49695 25.78ZM0.515966 24.7133C0.539132 24.8664 0.601834 25.091 0.728964 25.2946C0.855943 25.498 1.10092 25.7576 1.49695 25.78L1.55334 24.7816C1.57574 24.7828 1.59447 24.7922 1.60181 24.7976C1.60498 24.7999 1.59465 24.7929 1.5772 24.765C1.56024 24.7378 1.54354 24.7019 1.52963 24.6613C1.51573 24.6207 1.50794 24.5851 1.50471 24.5637L0.515966 24.7133ZM0.510836 20.6673C0.491363 21.1028 0.502621 23.5108 0.510348 24.6419L1.51032 24.6351C1.50245 23.4825 1.49187 21.1138 1.50984 20.712L0.510836 20.6673ZM1.04119 19.6016C0.876731 19.6852 0.752543 19.8388 0.670673 20.0006C0.581975 20.1759 0.522893 20.3977 0.510836 20.6673L1.50984 20.712C1.5165 20.563 1.54712 20.4834 1.56294 20.4521C1.57111 20.436 1.57501 20.4332 1.56953 20.4393C1.56725 20.4419 1.54455 20.4675 1.49429 20.4931L1.04119 19.6016ZM14.6372 16.2478C15.5894 16.5721 17.1442 16.6154 18.749 16.0852C20.3713 15.5492 22.0712 14.419 23.2812 12.3632L22.4194 11.856C21.3446 13.6819 19.8514 14.6678 18.4353 15.1357C17.0018 15.6093 15.673 15.5441 14.9595 15.3012L14.6372 16.2478ZM23.2812 12.3632C24.8259 9.73904 24.3387 7.29022 23.3991 5.53249C22.9321 4.65872 22.3508 3.94785 21.8422 3.453C21.5882 3.20587 21.3455 3.00594 21.1365 2.86449C21.0326 2.7942 20.9286 2.7326 20.8295 2.68705C20.7472 2.6492 20.6053 2.59196 20.4463 2.59734L20.4802 3.59677C20.3965 3.5996 20.3614 3.57246 20.4119 3.59569C20.4457 3.61121 20.5006 3.64165 20.576 3.69266C20.7255 3.79383 20.9227 3.9536 21.1448 4.16971C21.5884 4.60135 22.1041 5.23115 22.5172 6.0039C23.3379 7.53923 23.7433 9.60687 22.4194 11.856L23.2812 12.3632ZM20.6846 2.64872C20.6541 2.63365 20.6168 2.61454 20.5685 2.58975L20.1121 3.47952C20.1581 3.50315 20.203 3.52619 20.2419 3.54538L20.6846 2.64872ZM20.5685 2.58975C20.1053 2.35218 19.0111 1.78863 17.5564 1.68252C16.0847 1.57517 14.2783 1.93789 12.402 3.48624L13.0385 4.25753C14.7088 2.87915 16.2588 2.59052 17.4836 2.67987C18.7253 2.77044 19.6678 3.25164 20.1121 3.47952L20.5685 2.58975ZM12.402 3.48624C11.0563 4.59676 10.5723 5.80585 10.2705 6.96787L11.2384 7.21928C11.5098 6.17424 11.913 5.18635 13.0385 4.25753L12.402 3.48624ZM10.2705 6.96787C10.0589 7.78237 9.92855 8.66241 9.89754 9.44631C9.86742 10.2076 9.92708 10.9571 10.1568 11.4602L11.0664 11.0447C10.9396 10.767 10.8678 10.2182 10.8968 9.48584C10.9248 8.77604 11.0442 7.96699 11.2384 7.21928L10.2705 6.96787ZM10.2442 11.5915L10.7557 12.146L11.4907 11.4679L10.9791 10.9134L10.2442 11.5915ZM10.1872 11.5347L10.7571 12.1475L11.4894 11.4665L10.9195 10.8537L10.1872 11.5347ZM2.4015 20.4807L10.9155 11.539L10.1913 10.8494L1.67729 19.7911L2.4015 20.4807ZM2.09101 20.9738C2.09172 20.9579 2.09784 20.922 2.12109 20.8656C2.14356 20.8111 2.17593 20.7522 2.21364 20.695C2.25114 20.6381 2.28902 20.5902 2.31745 20.5581C2.33184 20.5418 2.34062 20.5332 2.34282 20.5312C2.344 20.5301 2.34042 20.5335 2.33266 20.5396C2.32868 20.5428 2.30446 20.5621 2.26615 20.5816L1.81264 19.6903C1.73551 19.7296 1.67784 19.7839 1.65985 19.8007C1.62911 19.8295 1.5982 19.8619 1.5687 19.8952C1.50934 19.9623 1.44254 20.0478 1.37859 20.1448C1.26106 20.3232 1.10623 20.6108 1.09201 20.9292L2.09101 20.9738ZM2.0915 23.962C2.08464 22.9565 2.07548 21.3216 2.09101 20.9738L1.09201 20.9292C1.07497 21.3106 1.08481 22.9854 1.09152 23.9689L2.0915 23.962ZM2.06762 24.0256C2.1011 24.0275 2.12929 24.0408 2.14464 24.0521C2.15581 24.0602 2.15206 24.0611 2.13995 24.0417C2.12833 24.023 2.11574 23.9964 2.10485 23.9646C2.09398 23.9328 2.08813 23.9055 2.0859 23.8907L1.09713 24.0402C1.11825 24.1799 1.17513 24.3844 1.29145 24.5709C1.40757 24.757 1.63681 25.0029 2.01117 25.024L2.06762 24.0256ZM5.80262 24.0249C4.65428 24.0318 2.34016 24.041 2.06762 24.0256L2.01117 25.024C2.32494 25.0418 4.69051 25.0316 5.80872 25.0248L5.80262 24.0249ZM6.55664 23.3459L5.50795 24.1231L6.10339 24.9265L7.15209 24.1493L6.55664 23.3459ZM6.50681 23.2233C6.50681 23.2819 6.49523 23.3491 6.47855 23.4028C6.4747 23.4151 6.47106 23.4252 6.468 23.4329C6.46649 23.4367 6.46523 23.4396 6.46428 23.4417C6.46331 23.4439 6.46279 23.4449 6.4628 23.4449C6.46282 23.4448 6.463 23.4445 6.46338 23.4438C6.46375 23.4431 6.46435 23.4421 6.4652 23.4407C6.46681 23.438 6.46977 23.4333 6.47428 23.427C6.48132 23.4172 6.50183 23.3898 6.53868 23.3598L7.17005 24.1353C7.26718 24.0563 7.32326 23.9579 7.35082 23.9047C7.38473 23.8392 7.41206 23.7685 7.43352 23.6995C7.47609 23.5624 7.50681 23.3951 7.50681 23.2233H6.50681ZM6.50681 22.0594V23.2233H7.50681V22.0594H6.50681ZM8.33173 21.3971L6.94737 21.5629L7.06625 22.5558L8.45061 22.3901L8.33173 21.3971ZM8.40007 21.3853C8.38298 21.3876 8.31865 21.3952 8.26021 21.4111L8.52213 22.3761C8.51352 22.3785 8.50746 22.3797 8.50517 22.3802C8.50275 22.3807 8.50212 22.3808 8.5041 22.3804C8.50603 22.3801 8.50921 22.3797 8.51439 22.3789C8.51968 22.3782 8.52548 22.3774 8.53331 22.3763L8.40007 21.3853ZM8.3861 21.4746C8.39063 21.4599 8.40196 21.4359 8.42369 21.4122C8.44425 21.3898 8.46414 21.3784 8.47336 21.374C8.48117 21.3703 8.48112 21.3716 8.4669 21.3747C8.4516 21.3781 8.43422 21.3807 8.40008 21.3853L8.5333 22.3763C8.61516 22.3653 9.17155 22.3234 9.34205 21.7681L8.3861 21.4746ZM8.50947 19.4643C8.5023 19.6724 8.48627 20.1373 8.46214 20.5821C8.45005 20.8048 8.43614 21.0184 8.42067 21.1902C8.41291 21.2762 8.40511 21.3479 8.39751 21.4029C8.38885 21.4656 8.38352 21.483 8.3861 21.4746L9.34205 21.7681C9.38045 21.6431 9.40159 21.4469 9.41663 21.2799C9.43367 21.0908 9.44832 20.8638 9.46067 20.6363C9.4854 20.1805 9.50172 19.7064 9.50888 19.4987L8.50947 19.4643ZM8.51 19.4488L8.50947 19.4643L9.50888 19.4987L9.50941 19.4832L8.51 19.4488ZM10.3488 19.2709L9.12552 18.9796L8.89389 19.9524L10.1172 20.2437L10.3488 19.2709ZM10.3991 19.2685C10.3579 19.2647 10.2995 19.2592 10.2489 19.2575L10.2171 20.257C10.2309 20.2575 10.255 20.2595 10.3075 20.2643L10.3991 19.2685ZM10.5777 19.466C10.5777 19.46 10.5787 19.4378 10.5905 19.4068C10.6029 19.3746 10.6226 19.3442 10.6472 19.3193C10.6931 19.273 10.7309 19.27 10.7094 19.2747C10.6902 19.2789 10.6522 19.2829 10.5904 19.2817C10.5303 19.2804 10.4685 19.2749 10.3991 19.2685L10.3075 20.2643C10.4229 20.2749 10.686 20.3036 10.9235 20.2516C11.0494 20.2239 11.2179 20.1641 11.3575 20.0232C11.5096 19.8698 11.5777 19.6708 11.5777 19.466H10.5777ZM10.4916 18.5565C10.5344 18.9004 10.5777 19.2552 10.5777 19.466H11.5777C11.5777 19.1779 11.5233 18.7489 11.4839 18.4328L10.4916 18.5565ZM10.432 17.9515C10.432 18.0875 10.4644 18.338 10.4916 18.5565L11.4839 18.4328C11.4513 18.1713 11.432 18.0074 11.432 17.9515H10.432ZM12.6214 17.4515H10.932V18.4515H12.6214V17.4515ZM14.4448 15.4209L12.2678 17.5979L12.9749 18.305L15.1519 16.128L14.4448 15.4209Z" fill="#F37032"/>
</svg>
