<svg width="187" height="73" viewBox="0 0 187 73" fill="none" xmlns="http://www.w3.org/2000/svg">
<g clip-path="url(#clip0_806_18000)">
<path d="M159.617 44.0575V29.4438H162.607V38.5663L167.004 29.4438H170.279V44.0575H167.333V35.0663L163.025 44.0575H159.617ZM165.223 28.1314C164.036 28.1314 162.805 27.3655 162.058 26.5999L162.915 25.0687C163.662 25.703 164.475 26.2278 165.179 26.2278C165.838 26.2278 166.696 25.7029 167.509 25.134L168.278 26.5999C167.707 27.278 166.41 28.1313 165.223 28.1313L165.223 28.1314Z" fill="black"/>
<path fill-rule="evenodd" clip-rule="evenodd" d="M6.53638 32.9697C6.53638 48.3705 19.0809 60.8551 34.5552 60.8551C50.0294 60.8551 62.5737 48.3705 62.5737 32.9697C62.5737 17.5694 50.0294 5.08459 34.5552 5.08459C19.0809 5.08459 6.53638 17.5694 6.53638 32.9697Z" fill="url(#paint0_radial_806_18000)"/>
<path d="M36.6755 0C16.42 0 0 16.3416 0 36.5002C0 56.6584 16.42 72.9999 36.6755 72.9999C56.9308 72.9999 73.351 56.6584 73.351 36.5002C73.351 16.3416 56.9307 0 36.6755 0ZM9.22081 32.8925C9.22081 19.0611 20.2365 7.79695 34.0123 7.29993C28.8487 16.5175 16.0246 27.9266 15.7625 38.7975C15.5877 46.0455 18.2575 51.7364 22.5531 55.3381C14.6061 50.9777 9.22076 42.5623 9.22076 32.8925H9.22081ZM47.3884 55.3258C51.4392 51.8954 54.0704 46.5595 54.2351 39.7161C54.4168 32.1818 48.5898 23.8421 43.4274 16.2326C43.1102 15.7306 42.8832 15.4277 42.8832 15.4277C42.8832 15.4277 39.0862 22.1108 34.9851 27.8882C30.8829 33.6663 29.1669 43.3641 36.4033 47.3466C36.4033 47.3466 32.4993 43.3286 37.4789 36.2649C38.8911 34.2626 41.0817 31.4176 42.8169 28.6804C45.1936 32.6631 46.9765 36.5134 46.9042 39.5411C46.712 47.5201 41.9145 52.565 34.6823 52.3923C27.4501 52.2195 22.9013 46.9516 23.0935 38.9728C23.1873 35.0885 26.3935 29.9975 29.9911 25.03C30.2678 24.6213 30.69 24.0451 31.2802 23.2743L31.2806 23.2736C31.4202 23.0854 31.56 22.8978 31.6998 22.711C36.355 16.3101 36.4215 10.5055 35.9302 7.30029C49.6953 7.80912 60.6994 19.0688 60.6994 32.8924C60.6994 42.5532 55.3236 50.962 47.3885 55.3257L47.3884 55.3258Z" fill="black"/>
<path d="M90.9621 13.9814C91.7522 14.6366 92.2571 15.8387 92.2571 16.7561V17.6299C92.2571 20.5138 90.7863 21.388 87.4495 21.388H86.7471C86.0882 21.388 85.3201 21.3439 84.6835 21.3439H84.3542V19.2903C85.2981 19.2903 86.2422 19.3344 87.1643 19.3344C88.6569 19.3344 89.2937 18.8753 89.2937 17.521V16.7344C89.2937 15.5109 88.7669 15.0955 87.8883 15.0955H85.3201V12.9326H87.8883C88.7668 12.9326 89.2937 12.5176 89.2937 11.2939V10.3982C89.2937 8.82525 88.3058 8.71606 87.1643 8.71606C86.4619 8.71606 85.0128 8.80352 84.3542 8.82525V6.72792C85.5177 6.70625 86.7033 6.61853 87.8227 6.61853C90.2594 6.61853 92.2571 7.12123 92.2571 10.2454V11.3378C92.1915 12.6704 91.7523 13.3698 90.9621 13.9814H90.9621Z" fill="black"/>
<path d="M93.1594 21.3658L97.1771 6.79333H101.172L105.277 21.3658H102.467L101.392 17.7392H97.0236L96.0358 21.3658H93.1594ZM97.6158 15.3358H100.777L99.197 9.30589L97.6158 15.3358Z" fill="black"/>
<path d="M115.382 6.79333V9.04366H109.806V21.3658H106.842V6.79333H115.382Z" fill="black"/>
<path d="M115.767 14.0469C115.767 8.51943 116.36 6.55322 120.947 6.55322C124.855 6.55322 126.282 7.47064 126.282 14.0469C126.282 20.3174 124.943 21.5409 120.947 21.5409C117.04 21.4754 115.767 20.2302 115.767 14.0469ZM123.362 14.0469C123.297 10.0707 123.011 8.67248 121.014 8.67248C119.125 8.67248 118.752 9.41497 118.752 14.0469C118.752 19.2467 119.323 19.4217 121.014 19.4217C123.033 19.4217 123.318 18.5474 123.362 14.0469Z" fill="black"/>
<path d="M128.276 21.3658V6.79333H133.435C136.047 6.79333 138.154 7.55776 138.154 10.5076V12.1897C138.154 13.9593 136.749 15.5544 134.862 15.86C134.357 15.9474 134.093 15.9474 131.261 15.9474V21.3657H128.276L128.276 21.3658ZM131.261 13.7846H133.369C134.357 13.7846 135.257 13.5882 135.257 12.1898V10.5294C135.257 9.08731 134.313 8.89066 133.369 8.89066H131.261V13.7846Z" fill="black"/>
<path d="M146.593 19.5306C147.537 19.5089 148.502 19.4433 149.512 19.3778V21.1038C148.129 21.3659 146.768 21.6062 144.793 21.5626C141.807 21.519 139.699 20.4268 139.699 14.8335C139.699 9.96149 139.962 6.61852 144.771 6.59705C144.924 6.59705 147.405 6.64045 149.512 6.9243V8.84691C146.944 8.65072 145.758 8.67244 145.429 8.67244C142.882 8.67244 142.641 10.3765 142.641 14.921C142.641 19.0936 144.024 19.6619 146.593 19.5306L146.593 19.5306Z" fill="black"/>
<path d="M151.333 21.366V6.77136H154.275V12.8893H155.285L158.555 6.77136H161.76L157.897 13.8284L161.936 21.366H158.775L155.35 15.0519H154.275V21.366H151.333Z" fill="black"/>
<path d="M163.369 21.366V6.77136H166.354V15.8821L170.745 6.77136H174.016V21.366H171.074V12.3863L166.772 21.366H163.369Z" fill="black"/>
<path d="M176.353 21.3658V6.77119H179.338V15.8819L183.729 6.77119H187V21.3658H184.058V12.3862L179.755 21.3658H176.353ZM181.951 5.46073C180.765 5.46073 179.536 4.69584 178.79 3.93117L179.646 2.40161C180.393 3.03517 181.204 3.5598 181.907 3.5598C182.566 3.5598 183.422 3.03517 184.234 2.4674L185.002 3.93117C184.431 4.60859 183.136 5.46073 181.951 5.46073Z" fill="black"/>
<path d="M88.157 44.0575V31.6974H84.3542V29.4659H94.9712V31.6974H91.1685V44.0575H88.157Z" fill="black"/>
<path d="M96.6094 44.0575V29.4659H101.775C104.391 29.4659 106.501 30.2315 106.501 33.1847V34.8694C106.501 36.6413 105.094 38.2386 103.204 38.5446C102.698 38.6321 102.434 38.6321 99.5986 38.6321V44.0575H96.6094H96.6094ZM99.5986 36.4664H101.709C102.698 36.4664 103.599 36.2698 103.599 34.8694V33.2072C103.599 31.763 102.654 31.5659 101.709 31.5659H99.5986V36.4664Z" fill="black"/>
<path d="M112.686 44.0137H110.18L111.257 40.0105H110.619L107.234 29.3563H110.202L112.202 36.379L114.202 29.3563H117.126L112.686 44.0137Z" fill="black"/>
<path d="M118.642 44.0575V29.4659H127.039V31.6538H121.632V34.8909C124.599 34.8909 125.083 34.9131 125.611 34.9788C127.457 35.1974 128.93 36.0943 128.93 38.6542V40.3384C128.93 43.2701 126.82 44.0575 124.204 44.0575H118.642V44.0575ZM121.632 41.9571H124.116C125.083 41.9571 126.028 41.7385 126.028 40.3167V38.6542C126.028 37.232 125.105 37.057 124.116 37.057H121.632V41.9571Z" fill="black"/>
<path d="M138.05 44.0577V37.6917H133.719V44.0577H130.73V29.444H133.719V35.5039H138.05V29.444H141.04V44.0577H138.05Z" fill="black"/>
<path d="M146.344 29.466V34.8916C147.64 34.8916 148.542 34.848 149.245 34.848C151.861 34.848 153.663 35.9635 153.663 38.6543V40.3387C153.663 43.2702 151.575 44.0575 148.937 44.0575H143.398V29.4659H146.344L146.344 29.466ZM146.344 41.9574H148.871C149.839 41.9574 150.762 41.7388 150.762 40.317V38.6543C150.762 37.2325 149.861 37.0573 148.871 37.0573H146.344V41.9574V41.9574ZM157.642 44.0576H154.741V29.466H157.642V44.0576Z" fill="black"/>
<path d="M91.0251 59.3911C91.8228 60.0529 92.3324 61.2658 92.3324 62.1925V63.0748C92.3324 65.9862 90.8479 66.8681 87.4792 66.8681H86.7701C86.1053 66.8681 85.3294 66.8242 84.6869 66.8242H84.3545V64.751C85.3074 64.751 86.2602 64.7951 87.1914 64.7951C88.6979 64.7951 89.3407 64.3318 89.3407 62.9644V62.1706C89.3407 60.9353 88.8088 60.5163 87.9223 60.5163H85.3294V58.3325H87.9223C88.8088 58.3325 89.3407 57.9135 89.3407 56.6784V55.774C89.3407 54.1864 88.3437 54.0761 87.1914 54.0761C86.4818 54.0761 85.0193 54.1638 84.3545 54.1864V52.0686C85.5289 52.0469 86.7258 51.9585 87.8559 51.9585C90.3163 51.9585 92.3325 52.4659 92.3325 55.6198V56.7223C92.2661 58.0679 91.8228 58.7741 91.0252 59.3911L91.0251 59.3911Z" fill="black"/>
<path d="M93.2439 66.8464L97.2999 52.1354H101.333L105.477 66.8464H102.641L101.555 63.1852H97.1445L96.1475 66.8464H93.2439ZM97.7427 60.7594H100.934L99.3388 54.6714L97.7427 60.7594H97.7427Z" fill="black"/>
<path d="M107.056 66.846V52.1125H111.045C113.793 52.1125 116.253 52.4438 116.253 55.8842V56.8322C116.253 58.1118 115.743 58.8176 114.968 59.4134C115.81 60.0528 116.253 61.2884 116.253 62.2141V63.0966C116.253 66.0741 114.635 66.8461 111.045 66.8461H107.056V66.846ZM110.026 54.2077V58.4207H111.887C112.708 58.4207 113.284 58.0015 113.284 56.7886V56.061C113.284 54.3181 112.486 54.2077 111.134 54.2077H110.026H110.026ZM110.026 64.7728H111.134C112.574 64.7728 113.283 64.3319 113.283 62.9643V62.1924C113.283 60.9571 112.708 60.5603 111.887 60.5603H110.026V64.7728L110.026 64.7728Z" fill="black"/>
<path d="M118.055 59.4578C118.055 53.8774 118.654 51.8926 123.285 51.8926C127.23 51.8926 128.671 52.8187 128.671 59.4578C128.671 65.7876 127.319 67.0227 123.285 67.0227C119.34 66.9566 118.055 65.6994 118.055 59.4578ZM125.723 59.4578C125.657 55.4433 125.369 54.0319 123.352 54.0319C121.446 54.0319 121.069 54.7814 121.069 59.4578C121.069 64.7068 121.645 64.8832 123.352 64.8832C125.391 64.8832 125.679 64.0011 125.723 59.4578Z" fill="black"/>
<path d="M141.079 52.1354V64.7293H142.497V69.8461H139.55V66.8465H132.281V69.8461H129.355V64.7293H130.685C132.081 62.2369 132.125 60.1636 132.125 56.9871V52.1354H141.079H141.079ZM135.095 54.2522V58.311C135.095 60.4062 134.984 62.1708 133.765 64.7293H138.109V54.2522H135.095L135.095 54.2522Z" fill="black"/>
</g>
<defs>
<radialGradient id="paint0_radial_806_18000" cx="0" cy="0" r="1" gradientUnits="userSpaceOnUse" gradientTransform="translate(34.5552 32.9699) scale(54.6444 54.3831)">
<stop stop-color="#F37032"/>
<stop offset="0.0392157" stop-color="#F37032"/>
<stop offset="0.831373" stop-color="#F04C2F"/>
<stop offset="1" stop-color="#F04C2F"/>
</radialGradient>
<clipPath id="clip0_806_18000">
<rect width="187" height="73" fill="white"/>
</clipPath>
</defs>
</svg>
