<svg width="24" height="35" viewBox="0 0 24 35" fill="none" xmlns="http://www.w3.org/2000/svg">
<path fill-rule="evenodd" clip-rule="evenodd" d="M12 13.3355C15.7279 13.3355 18.75 10.3502 18.75 6.66775C18.75 2.98525 15.7279 0 12 0C8.27208 0 5.25 2.98525 5.25 6.66775C5.25 10.3502 8.27208 13.3355 12 13.3355ZM11.9766 11.788C14.8631 11.788 17.2031 9.52618 17.2031 6.73603C17.2031 3.94588 14.8631 1.68401 11.9766 1.68401C9.09001 1.68401 6.75 3.94588 6.75 6.73603C6.75 9.52618 9.09001 11.788 11.9766 11.788Z" fill="#F37032"/>
<path d="M24 23.4168C24 20.3448 22.7357 17.3985 20.4853 15.2263C18.2348 13.054 15.1826 11.8336 12 11.8336C8.8174 11.8336 5.76516 13.054 3.51472 15.2263C1.26428 17.3985 4.80559e-07 20.3448 0 23.4168H1.80734C1.80734 20.8075 2.88121 18.305 4.79271 16.4599C6.7042 14.6148 9.29674 13.5782 12 13.5782C14.7033 13.5782 17.2958 14.6148 19.2073 16.4599C21.1188 18.305 22.1927 20.8075 22.1927 23.4168H24Z" fill="#F37032"/>
</svg>
