<svg width="74" height="73" viewBox="0 0 74 73" fill="none" xmlns="http://www.w3.org/2000/svg">
<path d="M36.6755 0C16.42 0 0 16.3416 0 36.5002C0 56.6584 16.42 72.9999 36.6755 72.9999C56.9308 72.9999 73.351 56.6584 73.351 36.5002C73.351 16.3416 56.9307 0 36.6755 0ZM9.22081 32.8925C9.22081 19.0611 20.2365 7.79695 34.0123 7.29993C28.8487 16.5175 16.0246 27.9266 15.7625 38.7975C15.5877 46.0455 18.2575 51.7364 22.5531 55.3381C14.6061 50.9777 9.22076 42.5623 9.22076 32.8925H9.22081ZM47.3884 55.3258C51.4392 51.8954 54.0704 46.5595 54.2351 39.7161C54.4168 32.1818 48.5898 23.8421 43.4274 16.2326C43.1102 15.7306 42.8832 15.4277 42.8832 15.4277C42.8832 15.4277 39.0862 22.1108 34.9851 27.8882C30.8829 33.6663 29.1669 43.3641 36.4033 47.3466C36.4033 47.3466 32.4993 43.3286 37.4789 36.2649C38.8911 34.2626 41.0817 31.4176 42.8169 28.6804C45.1936 32.6631 46.9765 36.5134 46.9042 39.5411C46.712 47.5201 41.9145 52.565 34.6823 52.3923C27.4501 52.2195 22.9013 46.9516 23.0935 38.9728C23.1873 35.0885 26.3935 29.9975 29.9911 25.03C30.2678 24.6213 30.69 24.0451 31.2802 23.2743L31.2806 23.2736C31.4202 23.0854 31.56 22.8978 31.6998 22.711C36.355 16.3101 36.4215 10.5055 35.9302 7.30029C49.6953 7.80912 60.6994 19.0688 60.6994 32.8924C60.6994 42.5532 55.3236 50.962 47.3885 55.3257L47.3884 55.3258Z" fill="black"/>
</svg>
