<svg width="24" height="24" viewBox="0 0 24 24" fill="none" xmlns="http://www.w3.org/2000/svg">
<path fill-rule="evenodd" clip-rule="evenodd" d="M9.06458 2.6771V1.87867C9.1272 1.3229 9.5953 0.16908 10.9667 0H13.0333C13.5577 0.0391387 14.6677 0.469667 14.9119 1.87867V2.6771L16.4618 3.33464C16.7515 2.99804 17.5374 2.32485 18.364 2.32485C19.1906 2.32485 19.7417 2.74755 19.9139 2.9589L21.229 4.32094C21.4716 4.6184 21.863 5.45284 21.4873 6.41096C21.2806 6.78669 20.8532 7.25636 20.6654 7.44423L21.2759 9.0411C22.1057 8.94716 23.8121 9.22896 24 11.1076V12.8219C23.9687 13.5969 23.3894 15.0951 21.3229 14.8885C21.1914 15.189 20.8454 16.047 20.6888 16.4384C21.1898 16.8376 22.0321 17.9977 21.3933 19.4442C20.4164 20.4587 19.9217 20.9785 19.7965 21.1115C19.2329 21.5812 17.7863 22.1448 16.5088 20.6419C16.1519 20.7734 15.3268 21.1037 14.9589 21.2524C15.045 22.0822 14.7382 23.784 12.8219 23.953H11.1781C10.4501 23.9609 8.99883 23.4317 9.01761 21.2524C8.77339 21.1397 7.91389 20.7828 7.51468 20.6184C7.23288 20.9941 6.45323 21.7221 5.58904 21.6282C4.74364 21.816 2.2544 19.82 2.30137 18.3875C2.50802 17.1288 3.09198 16.5949 3.35812 16.4853L2.72407 14.9354C1.93346 15.0528 0.2818 14.8133 0 12.9159V11.0137C0.0782779 10.2701 0.732681 8.83444 2.72407 9.0411C2.94951 8.43992 3.25636 7.78865 3.3816 7.53816C2.72407 7.02153 1.6955 5.62661 2.84149 4.18004C3.27358 3.74795 4.05479 2.99804 4.39139 2.6771C4.97065 2.32485 6.40626 1.96321 7.51468 3.33464C7.94677 3.14677 8.72798 2.818 9.06458 2.6771ZM17.2368 12C17.2368 14.8922 14.9027 17.2368 12.0235 17.2368C9.14425 17.2368 6.81018 14.8922 6.81018 12C6.81018 9.1078 9.14425 6.76321 12.0235 6.76321C14.9027 6.76321 17.2368 9.1078 17.2368 12Z" fill="#F37032"/>
</svg>
